<svg xmlns="http://www.w3.org/2000/svg" xmlns:xlink="http://www.w3.org/1999/xlink" width="35" height="16" viewBox="0 0 35 16"><defs><clipPath id="a"><circle cx="6" cy="6" r="6" transform="translate(-0.493 -0.493)" fill="#dbdbdb"/></clipPath></defs><g transform="translate(-1226 -469)"><g transform="translate(297.274 266.274)"><circle cx="8" cy="8" r="8" transform="translate(947.726 202.726)" fill="#fff"/><g transform="translate(950.575 209.438)"><circle cx="1.5" cy="1.5" r="1.5" transform="translate(0.151 0.288)" fill="#707070"/><circle cx="1.5" cy="1.5" r="1.5" transform="translate(4.151 0.288)" fill="#707070"/><circle cx="1.5" cy="1.5" r="1.5" transform="translate(8.151 0.288)" fill="#707070"/></g></g><g transform="translate(278.274 266.274)"><circle cx="8" cy="8" r="8" transform="translate(947.726 202.726)" fill="#fff"/></g><g transform="translate(281.081 269.081)"><g transform="translate(947.411 202.411)" clip-path="url(#a)"><g transform="translate(0 0)"><g transform="translate(0 0)"><path d="M7.643,4.061v0h0Z" transform="translate(-1.63 -0.866)" fill="#999"/><path d="M9.4,1.613A5.507,5.507,0,1,0,9.4,9.4a5.507,5.507,0,0,0,0-7.788Zm.7,4.4a.5.5,0,0,1,.057-.277c.126-.282.252-.563.4-.84a4.943,4.943,0,0,1-.5,2.887c-.067-.359-.126-.7-.172-1.053a.16.16,0,0,1,.038-.141A.666.666,0,0,0,10.1,6.009ZM5.4,10.561a1.4,1.4,0,0,0,.066-.548.292.292,0,0,0-.175-.326A2.59,2.59,0,0,1,4.528,9c-.025-.029-.043-.066-.09-.066S4.4,8.9,4.4,8.869c-.012-.123-.027-.245-.036-.368a.33.33,0,0,1,.21-.317c.078-.029.125-.059.092-.153a.192.192,0,0,1,.007-.1.105.105,0,0,0-.029-.1c-.124-.129-.124-.132-.23.013-.034.046-.06.059-.106.016a1.069,1.069,0,0,0-.445-.246c-.056-.016-.081-.046-.071-.1a.169.169,0,0,0-.082-.172.72.72,0,0,0-.37-.169.155.155,0,0,1-.084-.029,1.56,1.56,0,0,0-.418-.225.154.154,0,0,0-.1-.021,1.182,1.182,0,0,1-.634-.163.383.383,0,0,1-.289-.451.331.331,0,0,0-.081-.239A1,1,0,0,1,1.519,5.5c0-.138-.115-.161-.2-.217-.029-.02-.035.006-.036.029a.629.629,0,0,0,.062.434,3.086,3.086,0,0,1,.189.348c.011.021.03.044.005.064s-.039,0-.056-.013c-.141-.117-.3-.211-.434-.338a.1.1,0,0,1-.044-.083C1.047,5.258.945,4.8.951,4.339a1.141,1.141,0,0,1,.161-.656A1.931,1.931,0,0,0,1.341,3.1c.014-.051.03-.092.1-.08.046.008.046-.022.046-.054V2.584c0-.034,0-.067.032-.088a.492.492,0,0,0,.182-.3A.371.371,0,0,1,1.825,2c.083-.065.147-.148.222-.218A5.018,5.018,0,0,1,4.02.635c.035-.011.07-.028.07.036,0,.028.035.028.057.036.1.033.2.066.3.1a.406.406,0,0,0,.214,0,.42.42,0,0,1,.286.043c.043.025.063.014.076-.033.018-.063.05-.123.063-.188a.257.257,0,0,1,.134-.16c.043-.03.067-.02.069.033s0,.108,0,.163c0,.1.025.121.124.113.081-.006.161-.02.242-.03.021,0,.043-.009.057.014S5.706.8,5.693.815c-.06.067-.122.133-.181.2a.09.09,0,0,1-.079.031c-.036,0-.072,0-.108,0-.12,0-.122,0-.089.111.012.043,0,.061-.043.068-.059.009-.118.026-.177.034a.81.81,0,0,0-.482.224.479.479,0,0,0-.15.449c.006.026.015.039.04.034a.3.3,0,0,1,.207.072,1.866,1.866,0,0,0,.178.106.342.342,0,0,1,.2.39.193.193,0,0,0,.106.205c.032.022.046.022.07-.01A.29.29,0,0,0,5.256,2.5a.154.154,0,0,1,.1-.187.3.3,0,0,0,.19-.359.209.209,0,0,1,.049-.181.368.368,0,0,0,.058-.241c0-.047,0-.093.06-.106.075-.017.139-.111.228-.033a.226.226,0,0,0,.052.036.416.416,0,0,1,.25.363.145.145,0,0,0,.237.1c.168-.1.177-.1.218.092a.479.479,0,0,0,.246.351.96.96,0,0,1,.37.372c.029.05.034.083-.006.125s-.076.113-.139.152a.332.332,0,0,1-.22.053c-.218-.022-.438-.031-.654-.072a.1.1,0,0,0-.1.033,1.658,1.658,0,0,0-.176.2,1.149,1.149,0,0,0,.306-.084.405.405,0,0,1,.229.012c.043.009.035.038.029.07-.029.189-.029.189.142.287l.149.085c.016.009.033.018.032.04s-.02.028-.038.032a2.41,2.41,0,0,0-.521.17c-.047.021-.088-.016-.125-.036-.088-.049-.161,0-.227.036-.044.023-.029.095-.027.144,0,.076-.027.1-.1.095-.048-.005-.1.006-.145,0a.4.4,0,0,0-.388.166.983.983,0,0,0-.272.584c-.008.078-.036.125-.119.139a1.115,1.115,0,0,0-.217.062c-.067.026-.155.01-.2.088a.664.664,0,0,0-.11.462.469.469,0,0,0,.03.113.359.359,0,0,1-.04.325c-.022.048-.046.044-.081.011A.8.8,0,0,1,4.1,5.656a.335.335,0,0,0-.284-.226.818.818,0,0,0-.51.04.4.4,0,0,1-.221-.005.624.624,0,0,0-.45.163c-.026.019-.022.047-.023.074a5.15,5.15,0,0,0,.024.6.129.129,0,0,0,.042.086c.058.057.118.112.172.172a.162.162,0,0,0,.142.057.141.141,0,0,0,.138-.088.51.51,0,0,1,.456-.283c.058,0,.054.023.044.067a2.7,2.7,0,0,1-.2.512c-.031.065-.012.078.051.083a1.228,1.228,0,0,1,.452.069c.048.023.073.047.068.1a.417.417,0,0,0,0,.045c.007.248.008.246.212.386a.1.1,0,0,0,.12,0c.134-.075.138-.076.257.031.059.054.1.06.148-.008.008-.012.023-.02.031-.032A.564.564,0,0,1,5.223,7.3c.047-.007.069.007.064.057s-.008.1-.013.168c.079-.054.146-.1.21-.145a.112.112,0,0,1,.1-.019,3.861,3.861,0,0,0,.746.124.177.177,0,0,1,.122.05l.014.011a1.5,1.5,0,0,0,.815.409c.065.009.089.046.108.108a.355.355,0,0,1-.07.388c.024.033.05.02.072.02.226,0,.452.007.677,0a.193.193,0,0,1,.163.074,2.422,2.422,0,0,0,.186.2c.049.046.05.077.008.133a1.633,1.633,0,0,1-.4.365.527.527,0,0,0-.21.25.779.779,0,0,1-.461.469.977.977,0,0,1-.342.1.2.2,0,0,0-.184.1.2.2,0,0,1-.078.072l-.532.307a.457.457,0,0,1-.185.032,3.966,3.966,0,0,1-.586.028c-.023,0-.079.013-.051-.039ZM4.9.647c.01.054-.016.072-.071.072a4.347,4.347,0,0,1-.45-.03C4.307.683,4.3.633,4.295.589s.043-.041.068-.047A4.8,4.8,0,0,1,5.036.434.118.118,0,0,1,4.973.5.134.134,0,0,0,4.9.647ZM8.1,1.6a.5.5,0,0,1,.045.271.107.107,0,0,1-.039.086c-.093.084-.089.08-.189,0a4.8,4.8,0,0,1-.793-.894A3.751,3.751,0,0,1,6.826.68C6.791.622,6.709.611,6.645.566a.12.12,0,0,1,.1,0,5.172,5.172,0,0,1,1.422.6c.06.036.071.07.041.126-.041.083-.043.184-.121.248C8.063,1.559,8.084,1.585,8.1,1.6ZM7.736,3.536c-.024.018-.046,0-.066-.01a.455.455,0,0,0-.35-.085H7.248c-.16,0-.183-.018-.194-.178,0-.009,0-.021,0-.026a1.332,1.332,0,0,1,.233-.182c.038-.03.073.008.108.019a.506.506,0,0,1,.343.412c0,.018.015.037,0,.049Zm-.97-2.5a.261.261,0,0,1,0,.282c-.021.02-.039.007-.057,0L6.543,1.24l.078.2a.057.057,0,0,1-.038.085c-.1.039-.194.066-.281-.04a1.086,1.086,0,0,0-.429-.257c-.068-.031-.078-.062-.02-.107A.487.487,0,0,0,5.993.812.147.147,0,0,0,5.849.65c-.117,0-.235,0-.352,0-.029,0-.076.021-.083-.026s-.027-.1.024-.141A.248.248,0,0,1,5.625.412c.1.012.2.012.306.02a.443.443,0,0,1,.322.151C6.4.753,6.6.877,6.766,1.035ZM6.552,7.153c-.011.042.032.114-.031.123s-.051-.07-.067-.111c-.028-.072-.044-.148-.066-.223-.005-.018-.01-.035.008-.049s.033,0,.049.008a.163.163,0,0,1,.107.2.272.272,0,0,1,0,.048Zm-.358-.386c0,.043-.055.035-.086.05a.53.53,0,0,1-.067.023c-.108.036-.161,0-.188-.11,0-.019-.007-.038.013-.046.049-.022.1-.041.145-.06a.41.41,0,0,1,.11.028.139.139,0,0,1,.073.115Zm-.412-.1a.625.625,0,0,1-.387.1c-.062-.012-.141.032-.166-.067-.007-.027-.009-.045.018-.059a.585.585,0,0,1,.532-.057C5.843,6.615,5.818,6.638,5.782,6.668ZM4.889,6.6a.168.168,0,0,1-.2-.082.633.633,0,0,0-.2-.168.125.125,0,0,0-.1-.01,1.738,1.738,0,0,0-.332.078c-.1.034-.12-.049-.158-.1s.027-.067.05-.1c.113-.14.269-.1.408-.076a1.95,1.95,0,0,1,.786.359c.019.013.047.023.038.053s-.038.025-.06.025c-.054,0-.108,0-.163,0V6.6a.678.678,0,0,0-.071.007Zm.024.164c0,.023-.022.027-.039.031-.067.016-.134.032-.2.045a.42.42,0,0,1-.2-.121c-.008-.026,0-.041.029-.042s.066,0,.1,0a.748.748,0,0,1,.266.049c.02.005.042.01.04.038Z" transform="translate(0 0)" fill="#999"/></g></g></g></g></g></svg>